<svg width="54" height="26" viewBox="0 0 54 26" fill="none" xmlns="http://www.w3.org/2000/svg">
<rect width="54" height="26" rx="4" fill="#EB5757" fill-opacity="0.09"/>
<path d="M11.9998 8.33342V17.6667M11.9998 17.6667L16.6665 13.0001M11.9998 17.6667L7.33317 13.0001" stroke="#EB5757" stroke-width="1.5" stroke-linecap="round" stroke-linejoin="round"/>
<path d="M25.306 17V16.0455L28.2591 12.9858C28.5745 12.6534 28.8344 12.3622 29.039 12.1122C29.2463 11.8594 29.4012 11.6193 29.5034 11.392C29.6057 11.1648 29.6569 10.9233 29.6569 10.6676C29.6569 10.3778 29.5887 10.1278 29.4523 9.91761C29.3159 9.70455 29.1299 9.54119 28.8941 9.42756C28.6583 9.31108 28.3927 9.25284 28.0972 9.25284C27.7847 9.25284 27.512 9.31676 27.279 9.4446C27.0461 9.57244 26.8671 9.75284 26.7421 9.9858C26.6171 10.2187 26.5546 10.4915 26.5546 10.804H25.2975C25.2975 10.2727 25.4196 9.80824 25.664 9.41051C25.9083 9.01278 26.2435 8.70455 26.6696 8.4858C27.0958 8.2642 27.5802 8.15341 28.1228 8.15341C28.6711 8.15341 29.154 8.26278 29.5716 8.48153C29.9921 8.69744 30.3202 8.9929 30.556 9.3679C30.7918 9.74006 30.9097 10.1605 30.9097 10.6293C30.9097 10.9531 30.8486 11.2699 30.7265 11.5795C30.6071 11.8892 30.3983 12.2344 30.1 12.6151C29.8017 12.9929 29.387 13.4517 28.8557 13.9915L27.1213 15.8068V15.8707H31.0503V17H25.306ZM35.7157 17.1449C35.0424 17.142 34.4672 16.9645 33.9899 16.6122C33.5126 16.2599 33.1475 15.7472 32.8947 15.0739C32.6419 14.4006 32.5154 13.5895 32.5154 12.6406C32.5154 11.6946 32.6419 10.8864 32.8947 10.2159C33.1504 9.54545 33.5169 9.03409 33.9941 8.68182C34.4743 8.32955 35.0481 8.15341 35.7157 8.15341C36.3833 8.15341 36.9558 8.33097 37.4331 8.68608C37.9103 9.03835 38.2754 9.54972 38.5282 10.2202C38.7839 10.8878 38.9118 11.6946 38.9118 12.6406C38.9118 13.5923 38.7853 14.4048 38.5325 15.0781C38.2797 15.7486 37.9146 16.2614 37.4373 16.6165C36.96 16.9688 36.3862 17.1449 35.7157 17.1449ZM35.7157 16.0071C36.3066 16.0071 36.7683 15.7188 37.1007 15.142C37.4359 14.5653 37.6035 13.7315 37.6035 12.6406C37.6035 11.9162 37.5268 11.304 37.3734 10.804C37.2228 10.3011 37.0055 9.92045 36.7214 9.66193C36.4402 9.40057 36.1049 9.26989 35.7157 9.26989C35.1277 9.26989 34.666 9.55966 34.3308 10.1392C33.9956 10.7187 33.8265 11.5526 33.8237 12.6406C33.8237 13.3679 33.899 13.983 34.0495 14.4858C34.2029 14.9858 34.4203 15.3651 34.7015 15.6236C34.9828 15.8793 35.3208 16.0071 35.7157 16.0071ZM44.9909 15.3636V14.9034C44.9909 14.5739 45.0591 14.2727 45.1954 14C45.3346 13.7244 45.5363 13.5043 45.8005 13.3395C46.0676 13.1719 46.39 13.0881 46.7679 13.0881C47.1542 13.0881 47.4781 13.1705 47.7395 13.3352C48.0008 13.5 48.1983 13.7202 48.3318 13.9957C48.4681 14.2713 48.5363 14.5739 48.5363 14.9034V15.3636C48.5363 15.6932 48.4681 15.9957 48.3318 16.2713C48.1954 16.544 47.9951 16.7642 47.7309 16.9318C47.4696 17.0966 47.1485 17.179 46.7679 17.179C46.3843 17.179 46.0605 17.0966 45.7963 16.9318C45.5321 16.7642 45.3318 16.544 45.1954 16.2713C45.0591 15.9957 44.9909 15.6932 44.9909 15.3636ZM45.9838 14.9034V15.3636C45.9838 15.608 46.042 15.8295 46.1585 16.0284C46.275 16.2273 46.4781 16.3267 46.7679 16.3267C47.0548 16.3267 47.2551 16.2273 47.3687 16.0284C47.4823 15.8295 47.5392 15.608 47.5392 15.3636V14.9034C47.5392 14.6591 47.4838 14.4375 47.373 14.2386C47.265 14.0398 47.0633 13.9403 46.7679 13.9403C46.4838 13.9403 46.2821 14.0398 46.1627 14.2386C46.0434 14.4375 45.9838 14.6591 45.9838 14.9034ZM40.6017 10.3693V9.90909C40.6017 9.57955 40.6698 9.27699 40.8062 9.00142C40.9454 8.72585 41.1471 8.50568 41.4113 8.34091C41.6784 8.17614 42.0008 8.09375 42.3787 8.09375C42.765 8.09375 43.0889 8.17614 43.3502 8.34091C43.6116 8.50568 43.8091 8.72585 43.9426 9.00142C44.0761 9.27699 44.1429 9.57955 44.1429 9.90909V10.3693C44.1429 10.6989 44.0747 11.0014 43.9383 11.277C43.8048 11.5497 43.6059 11.7699 43.3417 11.9375C43.0804 12.1023 42.7593 12.1847 42.3787 12.1847C41.9923 12.1847 41.667 12.1023 41.4028 11.9375C41.1414 11.7699 40.9426 11.5497 40.8062 11.277C40.6698 11.0014 40.6017 10.6989 40.6017 10.3693ZM41.5988 9.90909V10.3693C41.5988 10.6136 41.6556 10.8352 41.7693 11.0341C41.8858 11.233 42.0889 11.3324 42.3787 11.3324C42.6627 11.3324 42.8616 11.233 42.9752 11.0341C43.0917 10.8352 43.15 10.6136 43.15 10.3693V9.90909C43.15 9.66477 43.0946 9.44318 42.9838 9.24432C42.873 9.04545 42.6713 8.94602 42.3787 8.94602C42.0946 8.94602 41.8929 9.04545 41.7735 9.24432C41.6571 9.44318 41.5988 9.66477 41.5988 9.90909ZM41.0065 17L47.0065 8.27273H48.025L42.025 17H41.0065Z" fill="#EB5757"/>
</svg>
