<svg width="24" height="24" viewBox="0 0 24 24" fill="none" xmlns="http://www.w3.org/2000/svg">
<path d="M13.7072 2.29296C13.6144 2.20001 13.5042 2.12627 13.3829 2.07596C13.2615 2.02565 13.1315 1.99976 13.0002 1.99976C12.8688 1.99976 12.7388 2.02565 12.6175 2.07596C12.4962 2.12627 12.386 2.20001 12.2932 2.29296L6.45317 8.13296C6.43817 8.13196 6.42417 8.12396 6.40917 8.12396C6.27784 8.12382 6.14777 8.14964 6.02644 8.19992C5.90511 8.2502 5.79491 8.32396 5.70217 8.41696L4.28817 9.83096C4.00897 10.1092 3.78764 10.4399 3.63694 10.8041C3.48624 11.1684 3.40917 11.5588 3.41017 11.953C3.41017 12.755 3.72317 13.509 4.28917 14.074L4.99617 14.781L2.87417 16.903C2.59431 17.1778 2.37269 17.5062 2.22252 17.8685C2.07236 18.2309 1.99674 18.6197 2.00017 19.012C1.99545 19.4514 2.08836 19.8863 2.27219 20.2855C2.45602 20.6846 2.72618 21.0379 3.06317 21.32C3.58217 21.759 4.25117 22 4.94817 22C5.78217 22 6.60217 21.659 7.19817 21.063L9.23817 19.024L9.94517 19.73C11.0792 20.863 13.0542 20.864 14.1872 19.731L15.6022 18.317C15.6952 18.2242 15.7689 18.114 15.8192 17.9927C15.8695 17.8714 15.8953 17.7413 15.8952 17.61C15.8952 17.584 15.8822 17.56 15.8802 17.534L21.7072 11.707C21.8001 11.6142 21.8739 11.504 21.9242 11.3827C21.9745 11.2613 22.0004 11.1313 22.0004 11C22.0004 10.8686 21.9745 10.7386 21.9242 10.6173C21.8739 10.4959 21.8001 10.3857 21.7072 10.293L13.7072 2.29296ZM12.7722 18.317C12.5817 18.4989 12.3284 18.6003 12.065 18.6001C11.8016 18.5999 11.5484 18.4981 11.3582 18.316L9.94417 16.903C9.85138 16.81 9.74118 16.7363 9.61986 16.686C9.49855 16.6357 9.36851 16.6098 9.23717 16.6098C9.10584 16.6098 8.97579 16.6357 8.85448 16.686C8.73316 16.7363 8.62296 16.81 8.53017 16.903L5.78417 19.648C5.56291 19.8711 5.26238 19.9976 4.94817 20C4.73173 20.0035 4.52113 19.9297 4.35417 19.792C4.23958 19.6971 4.14814 19.5774 4.08679 19.4419C4.02545 19.3064 3.99582 19.1586 4.00017 19.01C3.99913 18.8813 4.024 18.7537 4.0733 18.6348C4.12261 18.5159 4.19535 18.4081 4.28717 18.318L7.11617 15.489C7.20912 15.3962 7.28285 15.286 7.33317 15.1646C7.38348 15.0433 7.40937 14.9133 7.40937 14.782C7.40937 14.6506 7.38348 14.5206 7.33317 14.3993C7.28285 14.2779 7.20912 14.1677 7.11617 14.075L5.70117 12.66C5.60816 12.5675 5.53445 12.4575 5.48432 12.3363C5.4342 12.2151 5.40865 12.0851 5.40917 11.954C5.40917 11.686 5.51317 11.435 5.70217 11.246L6.40917 10.539L13.4802 17.611L12.7722 18.317ZM14.6612 15.925L8.07517 9.33896L13.0002 4.41396L19.5862 11L14.6612 15.925Z" fill="#075AAA"/>
</svg>
