<svg width="32" height="28" viewBox="0 0 32 28" fill="none" xmlns="http://www.w3.org/2000/svg">
<g filter="url(#filter0_d_539_2236)">
<path d="M16 16V10M16 10L13 12M16 10L19 12M27 15C27 12.7909 25.2091 11 23 11C22.9764 11 22.9532 11.0002 22.9297 11.0006C22.4447 7.60802 19.5267 5 16 5C13.2033 5 10.7902 6.64004 9.66895 9.01082C7.06206 9.18144 5 11.3498 5 13.9999C5 16.7613 7.23858 19.0001 10 19.0001L23 19C25.2091 19 27 17.2091 27 15Z" stroke="#A3A3A3" stroke-width="2" stroke-linecap="round" stroke-linejoin="round"/>
</g>
<defs>
<filter id="filter0_d_539_2236" x="0" y="0" width="32" height="32" filterUnits="userSpaceOnUse" color-interpolation-filters="sRGB">
<feFlood flood-opacity="0" result="BackgroundImageFix"/>
<feColorMatrix in="SourceAlpha" type="matrix" values="0 0 0 0 0 0 0 0 0 0 0 0 0 0 0 0 0 0 127 0" result="hardAlpha"/>
<feOffset dy="4"/>
<feGaussianBlur stdDeviation="2"/>
<feComposite in2="hardAlpha" operator="out"/>
<feColorMatrix type="matrix" values="0 0 0 0 0 0 0 0 0 0 0 0 0 0 0 0 0 0 0.25 0"/>
<feBlend mode="normal" in2="BackgroundImageFix" result="effect1_dropShadow_539_2236"/>
<feBlend mode="normal" in="SourceGraphic" in2="effect1_dropShadow_539_2236" result="shape"/>
</filter>
</defs>
</svg>
