<svg width="20" height="21" viewBox="0 0 20 21" fill="none" xmlns="http://www.w3.org/2000/svg">
<path d="M14.9999 7.09172C14.9749 7.09172 14.9583 7.09172 14.9333 7.09172H14.8916C13.3166 7.04172 12.1416 5.82505 12.1416 4.32505C12.1416 2.79172 13.3916 1.55005 14.9166 1.55005C16.4416 1.55005 17.6916 2.80005 17.6916 4.32505C17.6833 5.83338 16.5083 7.05005 15.0083 7.10005C15.0083 7.09172 15.0083 7.09172 14.9999 7.09172ZM14.9166 2.79172C14.0749 2.79172 13.3916 3.47505 13.3916 4.31672C13.3916 5.14172 14.0333 5.80839 14.8583 5.84172C14.8666 5.83339 14.9333 5.83339 15.0083 5.84172C15.8166 5.80006 16.4416 5.13339 16.4499 4.31672C16.4499 3.47505 15.7666 2.79172 14.9166 2.79172Z" fill="#00142E"/>
<path d="M15.0083 13.2334C14.6833 13.2334 14.3583 13.2084 14.0333 13.15C13.6916 13.0917 13.4666 12.7667 13.5249 12.425C13.5833 12.0834 13.9083 11.8584 14.2499 11.9167C15.2749 12.0917 16.3583 11.9 17.0833 11.4167C17.4749 11.1584 17.6833 10.8334 17.6833 10.5084C17.6833 10.1834 17.4666 9.8667 17.0833 9.60837C16.3583 9.12504 15.2583 8.93337 14.2249 9.11671C13.8833 9.18337 13.5583 8.95004 13.4999 8.60837C13.4416 8.26671 13.6666 7.94171 14.0083 7.88338C15.3666 7.64171 16.7749 7.90004 17.7749 8.5667C18.5083 9.05837 18.9333 9.75837 18.9333 10.5084C18.9333 11.25 18.5166 11.9584 17.7749 12.4584C17.0166 12.9584 16.0333 13.2334 15.0083 13.2334Z" fill="#00142E"/>
<path d="M4.9749 7.09175C4.96657 7.09175 4.95824 7.09175 4.95824 7.09175C3.45824 7.04175 2.28324 5.82508 2.2749 4.32508C2.2749 2.79174 3.5249 1.54175 5.0499 1.54175C6.5749 1.54175 7.8249 2.79175 7.8249 4.31675C7.8249 5.82508 6.6499 7.04175 5.1499 7.09175L4.9749 6.46675L5.03324 7.09175C5.01657 7.09175 4.99157 7.09175 4.9749 7.09175ZM5.05824 5.84175C5.10824 5.84175 5.1499 5.84175 5.1999 5.85008C5.94157 5.81675 6.59157 5.15008 6.59157 4.32508C6.59157 3.48341 5.90824 2.80008 5.06657 2.80008C4.2249 2.80008 3.54157 3.48341 3.54157 4.32508C3.54157 5.14174 4.1749 5.80008 4.98324 5.85008C4.99157 5.84175 5.0249 5.84175 5.05824 5.84175Z" fill="#00142E"/>
<path d="M4.9665 13.2334C3.9415 13.2334 2.95817 12.9584 2.19984 12.4584C1.4665 11.9667 1.0415 11.2584 1.0415 10.5084C1.0415 9.76671 1.4665 9.05837 2.19984 8.5667C3.19984 7.90004 4.60817 7.64171 5.9665 7.88338C6.30817 7.94171 6.53317 8.26671 6.47484 8.60837C6.4165 8.95004 6.09151 9.18337 5.74984 9.11671C4.71651 8.93337 3.62484 9.12504 2.89151 9.60837C2.49984 9.8667 2.2915 10.1834 2.2915 10.5084C2.2915 10.8334 2.50817 11.1584 2.89151 11.4167C3.61651 11.9 4.69984 12.0917 5.72484 11.9167C6.0665 11.8584 6.39151 12.0917 6.44984 12.425C6.50817 12.7667 6.28317 13.0917 5.9415 13.15C5.61651 13.2084 5.2915 13.2334 4.9665 13.2334Z" fill="#00142E"/>
<path d="M9.99994 13.3166C9.97494 13.3166 9.95827 13.3166 9.93327 13.3166H9.8916C8.3166 13.2666 7.1416 12.0499 7.1416 10.5499C7.1416 9.01657 8.3916 7.7749 9.9166 7.7749C11.4416 7.7749 12.6916 9.0249 12.6916 10.5499C12.6833 12.0582 11.5083 13.2749 10.0083 13.3249C10.0083 13.3166 10.0083 13.3166 9.99994 13.3166ZM9.9166 9.01657C9.07494 9.01657 8.3916 9.69991 8.3916 10.5416C8.3916 11.3666 9.03327 12.0332 9.85827 12.0666C9.8666 12.0582 9.93327 12.0582 10.0083 12.0666C10.8166 12.0249 11.4416 11.3582 11.4499 10.5416C11.4499 9.70824 10.7666 9.01657 9.9166 9.01657Z" fill="#00142E"/>
<path d="M9.99974 19.4666C8.99974 19.4666 7.99974 19.2083 7.22474 18.6833C6.49141 18.1916 6.06641 17.4916 6.06641 16.7416C6.06641 15.9999 6.48307 15.2833 7.22474 14.7916C8.78307 13.7583 11.2247 13.7583 12.7747 14.7916C13.5081 15.2833 13.9331 15.9833 13.9331 16.7333C13.9331 17.4749 13.5164 18.1916 12.7747 18.6833C11.9997 19.1999 10.9997 19.4666 9.99974 19.4666ZM7.91641 15.8416C7.52474 16.0999 7.31641 16.4249 7.31641 16.7499C7.31641 17.0749 7.53307 17.3916 7.91641 17.6499C9.04141 18.4083 10.9497 18.4083 12.0747 17.6499C12.4664 17.3916 12.6747 17.0666 12.6747 16.7416C12.6747 16.4166 12.4581 16.0999 12.0747 15.8416C10.9581 15.0833 9.04974 15.0916 7.91641 15.8416Z" fill="#00142E"/>
</svg>
