<svg width="20" height="20" viewBox="0 0 20 20" fill="none" xmlns="http://www.w3.org/2000/svg">
<path d="M14.1665 18.9583H5.83317C2.9665 18.9583 1.0415 17.0333 1.0415 14.1666V9.99992C1.0415 7.43325 2.62484 5.57492 5.08317 5.26659C5.3165 5.23326 5.57484 5.20825 5.83317 5.20825H14.1665C14.3665 5.20825 14.6248 5.21658 14.8915 5.25825C17.3498 5.54158 18.9582 7.40825 18.9582 9.99992V14.1666C18.9582 17.0333 17.0332 18.9583 14.1665 18.9583ZM5.83317 6.45825C5.63317 6.45825 5.4415 6.47491 5.24984 6.49991C3.4165 6.73324 2.2915 8.06659 2.2915 9.99992V14.1666C2.2915 16.3166 3.68317 17.7083 5.83317 17.7083H14.1665C16.3165 17.7083 17.7082 16.3166 17.7082 14.1666V9.99992C17.7082 8.04992 16.5665 6.70826 14.7165 6.49159C14.5165 6.45826 14.3415 6.45825 14.1665 6.45825H5.83317Z" fill="#00142E"/>
<path d="M5.15854 6.50829C4.95854 6.50829 4.7752 6.41663 4.6502 6.24996C4.50854 6.05829 4.49187 5.80829 4.6002 5.59996C4.74187 5.31663 4.94187 5.04163 5.2002 4.79163L7.90854 2.07495C9.29187 0.699951 11.5419 0.699951 12.9252 2.07495L14.3835 3.54997C15.0002 4.1583 15.3752 4.97497 15.4169 5.84163C15.4252 6.0333 15.3502 6.21661 15.2085 6.34161C15.0669 6.46661 14.8752 6.52497 14.6919 6.49163C14.5252 6.46663 14.3502 6.45829 14.1669 6.45829H5.83354C5.63354 6.45829 5.44187 6.47495 5.2502 6.49995C5.2252 6.50828 5.19187 6.50829 5.15854 6.50829ZM6.5502 5.20829H14.0169C13.9085 4.92496 13.7335 4.66663 13.5002 4.4333L12.0335 2.94997C11.1419 2.06663 9.68354 2.06663 8.78354 2.94997L6.5502 5.20829Z" fill="#00142E"/>
<path d="M18.3332 14.3751H15.8332C14.5665 14.3751 13.5415 13.3501 13.5415 12.0834C13.5415 10.8167 14.5665 9.79175 15.8332 9.79175H18.3332C18.6748 9.79175 18.9582 10.0751 18.9582 10.4167C18.9582 10.7584 18.6748 11.0417 18.3332 11.0417H15.8332C15.2582 11.0417 14.7915 11.5084 14.7915 12.0834C14.7915 12.6584 15.2582 13.1251 15.8332 13.1251H18.3332C18.6748 13.1251 18.9582 13.4084 18.9582 13.7501C18.9582 14.0917 18.6748 14.3751 18.3332 14.3751Z" fill="#00142E"/>
</svg>
