<svg width="20" height="20" viewBox="0 0 20 20" fill="none" xmlns="http://www.w3.org/2000/svg">
<path d="M0.833496 12.0837C0.833496 10.1433 1.85374 8.44124 3.38705 7.48466C3.80407 4.20366 6.60588 1.66699 10.0002 1.66699C13.3944 1.66699 16.1962 4.20366 16.6132 7.48466C18.1466 8.44124 19.1668 10.1433 19.1668 12.0837C19.1668 14.935 16.9637 17.2717 14.1668 17.4846L5.8335 17.5003C3.03665 17.2717 0.833496 14.935 0.833496 12.0837ZM14.0404 15.8227C15.9849 15.6747 17.5002 14.0471 17.5002 12.0837C17.5002 10.7728 16.8238 9.58049 15.7311 8.89874L15.0597 8.47983L14.9599 7.69481C14.6447 5.21535 12.5242 3.33366 10.0002 3.33366C7.47613 3.33366 5.35555 5.21535 5.04041 7.69481L4.94063 8.47983L4.26923 8.89874C3.17646 9.58049 2.50016 10.7728 2.50016 12.0837C2.50016 14.0471 4.01544 15.6747 5.95991 15.8227L6.10433 15.8337H13.896L14.0404 15.8227ZM10.8335 10.0003H13.3335L10.0002 14.167L6.66683 10.0003H9.16683V6.66699H10.8335V10.0003Z" fill="#2E2E2E"/>
</svg>
