<svg width="136" height="136" viewBox="0 0 136 136" fill="none" xmlns="http://www.w3.org/2000/svg">
<rect x="8" y="8" width="120" height="120" rx="60" fill="#D1FADF"/>
<rect x="8" y="8" width="120" height="120" rx="60" stroke="#ECFDF3" stroke-width="16"/>
<path d="M93.0005 65.7001V68.0001C92.9974 73.3912 91.2517 78.6368 88.0238 82.9547C84.7959 87.2726 80.2587 90.4313 75.0889 91.9599C69.9191 93.4885 64.3936 93.3049 59.3367 91.4366C54.2797 89.5683 49.9621 86.1154 47.0279 81.5928C44.0937 77.0702 42.7 71.7203 43.0547 66.3409C43.4094 60.9616 45.4935 55.841 48.9962 51.7428C52.4989 47.6447 57.2325 44.7886 62.491 43.6005C67.7495 42.4124 73.2512 42.956 78.1755 45.1502M93.0005 48.0002L68.0005 73.0252L60.5005 65.5252" stroke="#039855" stroke-width="5" stroke-linecap="round" stroke-linejoin="round"/>
</svg>
