<svg width="20" height="20" viewBox="0 0 20 20" fill="none" xmlns="http://www.w3.org/2000/svg">
<path d="M7.49984 14.1667H12.4998M7.49984 11.6667H12.4998M10.8335 2.50073C10.7539 2.5 10.6643 2.5 10.5621 2.5H6.83333C5.89991 2.5 5.43285 2.5 5.07633 2.68166C4.76273 2.84145 4.50795 3.09623 4.34816 3.40983C4.1665 3.76635 4.1665 4.23341 4.1665 5.16683V14.8335C4.1665 15.7669 4.1665 16.2334 4.34816 16.5899C4.50795 16.9035 4.76273 17.1587 5.07633 17.3185C5.43251 17.5 5.89901 17.5 6.83062 17.5L13.1691 17.5C14.1007 17.5 14.5665 17.5 14.9227 17.3185C15.2363 17.1587 15.4919 16.9035 15.6517 16.5899C15.8332 16.2337 15.8332 15.7679 15.8332 14.8363V7.7714C15.8332 7.66918 15.8331 7.57961 15.8324 7.5M10.8335 2.50073C11.0714 2.5029 11.2213 2.51172 11.365 2.54623C11.535 2.58705 11.698 2.65439 11.8472 2.74577C12.0153 2.84881 12.1597 2.99318 12.4478 3.28125L15.0523 5.88582C15.3406 6.17407 15.4839 6.3178 15.587 6.486C15.6783 6.63512 15.746 6.79771 15.7868 6.96777C15.8213 7.11149 15.8302 7.26212 15.8324 7.5M10.8335 2.50073L10.8332 4.83351C10.8332 5.76693 10.8332 6.23346 11.0148 6.58998C11.1746 6.90358 11.4294 7.15873 11.743 7.31852C12.0992 7.5 12.5657 7.5 13.4973 7.5H15.8324" stroke="#075AAA" stroke-width="1.5" stroke-linecap="round" stroke-linejoin="round"/>
</svg>
