<svg width="24" height="24" viewBox="0 0 24 24" fill="none" xmlns="http://www.w3.org/2000/svg">
<path d="M20 12H4L2 22H22L20 12ZM18.36 14L18.76 16H13V14H18.36ZM11 14V16H5.24L5.64 14H11ZM4.84 18H11V20H4.44L4.84 18ZM13 20V18H19.16L19.56 20H13ZM11 8H13V11H11V8ZM15.764 7.205L17.179 5.791L19.3 7.912L17.886 9.326L15.764 7.205ZM4.705 7.913L6.826 5.79L8.24 7.206L6.12 9.327L4.705 7.913ZM3 2H6V4H3V2ZM18 2H21V4H18V2ZM12 7C14.76 7 17 4.76 17 2H15C15 3.65 13.65 5 12 5C10.35 5 9 3.65 9 2H7C7 4.76 9.24 7 12 7Z" fill="#075AAA"/>
</svg>
