<svg width="40" height="40" viewBox="0 0 40 40" fill="none" xmlns="http://www.w3.org/2000/svg">
<path d="M20.0064 13.8167C19.2471 13.8167 18.6313 13.2017 18.6313 12.4434V8.56642C18.6313 7.80814 19.2471 7.19312 20.0064 7.19312C20.7656 7.19312 21.3814 7.80814 21.3814 8.56642V12.4419C21.3814 13.2002 20.7656 13.8152 20.0064 13.8152V13.8167Z" fill="#1B2D5A"/>
<path d="M11.4695 16.0947C10.994 16.0947 10.531 15.8487 10.2769 15.4081L8.33757 12.0527C7.95718 11.3956 8.18323 10.5548 8.84111 10.1765C9.49899 9.79653 10.3408 10.0223 10.7197 10.6794L12.659 14.0348C13.0394 14.6919 12.8133 15.5327 12.1555 15.9126C11.9388 16.0371 11.7018 16.0963 11.4695 16.0963V16.0947Z" fill="#1B2D5A"/>
<path d="M5.21474 22.3322C4.9809 22.3322 4.7455 22.273 4.5288 22.1484L1.16924 20.2115C0.511356 19.8316 0.285306 18.9923 0.665693 18.3337C1.04608 17.6766 1.88636 17.4524 2.54424 17.8308L5.9038 19.7677C6.56169 20.1477 6.78773 20.9869 6.40735 21.6455C6.15324 22.0862 5.69023 22.3322 5.21474 22.3322Z" fill="#1B2D5A"/>
<path d="M34.7851 22.3508C34.3096 22.3508 33.8466 22.1048 33.5925 21.6642C33.2121 21.0071 33.4381 20.1663 34.096 19.7864L37.4556 17.8479C38.1134 17.4695 38.9553 17.6937 39.3341 18.3508C39.7145 19.0079 39.4884 19.8487 38.8306 20.2286L35.471 22.1671C35.2543 22.2917 35.0173 22.3508 34.7851 22.3508Z" fill="#1B2D5A"/>
<path d="M28.5383 16.107C28.3044 16.107 28.069 16.0479 27.8523 15.9233C27.1945 15.5434 26.9684 14.7042 27.3488 14.0455L29.2881 10.6901C29.6685 10.033 30.5088 9.80728 31.1667 10.1872C31.8246 10.5671 32.0506 11.4064 31.6702 12.0634L29.7309 15.4188C29.4768 15.8595 29.0138 16.1055 28.5383 16.1055V16.107Z" fill="#1B2D5A"/>
<path d="M10.2329 32.8063C9.62804 32.8063 9.07149 32.6662 8.56639 32.3159C7.22412 31.3848 7.22412 29.5007 7.22412 28.881C7.22412 22.5128 13.0733 17.3325 20.2648 17.3325C27.4563 17.3325 33.3055 22.5128 33.3055 28.881C33.3055 29.5007 33.3055 31.3848 31.9633 32.3159C30.5353 33.3077 28.6817 32.6179 26.5365 31.8176C24.6611 31.1185 22.5347 30.3275 20.2648 30.3275C17.995 30.3275 15.8701 31.1185 13.9931 31.8176C12.6057 32.3345 11.3398 32.8048 10.2329 32.8048V32.8063ZM10.2438 29.918C10.2563 29.918 10.2688 29.918 10.2828 29.918C10.7973 29.918 12.0475 29.4525 12.9814 29.1053C14.9831 28.3594 17.4727 27.433 20.2648 27.433C23.0569 27.433 25.5466 28.361 27.5483 29.1053C28.5071 29.4618 29.787 29.9398 30.2843 29.9165C30.3295 29.7919 30.4059 29.493 30.4059 28.8795C30.4059 24.1087 25.8568 20.2255 20.2648 20.2255C14.6728 20.2255 10.1238 24.1072 10.1238 28.8795C10.1238 29.493 10.2002 29.7919 10.2454 29.9165L10.2438 29.918Z" fill="#1B2D5A"/>
</svg>
