<svg width="22" height="25" viewBox="0 0 22 25" fill="none" xmlns="http://www.w3.org/2000/svg">
<path d="M7.53809 8.66667H5.00024C3.60011 8.66667 2.89953 8.66667 2.36475 8.94521C1.89434 9.19022 1.51217 9.58088 1.27248 10.0617C1 10.6084 1 11.3246 1 12.7558V19.9114C1 21.3426 1 22.0579 1.27248 22.6045C1.51217 23.0854 1.89434 23.4767 2.36475 23.7217C2.899 24 3.59878 24 4.99617 24H17.0039C18.4013 24 19.1 24 19.6342 23.7217C20.1046 23.4767 20.4881 23.0854 20.7278 22.6045C21 22.0584 21 21.3441 21 19.9157V12.7516C21 11.3232 21 10.6079 20.7278 10.0617C20.4881 9.58088 20.1047 9.19021 19.6342 8.94521C19.0995 8.66667 18.4004 8.66667 17.0002 8.66667H14.4612M7.53809 8.66667H14.4612M7.53809 8.66667C7.37877 8.66667 7.25 8.53465 7.25 8.3718V4.83333C7.25 2.71624 8.92893 1 11 1C13.0711 1 14.75 2.71624 14.75 4.83333V8.3718C14.75 8.53465 14.6205 8.66667 14.4612 8.66667" stroke="#1F1F1F" stroke-width="2" stroke-linecap="round" stroke-linejoin="round"/>
</svg>
