<svg width="24" height="24" viewBox="0 0 24 24" fill="none" xmlns="http://www.w3.org/2000/svg">
<path d="M18.9998 8.71001L13.6668 4.56201C13.1988 4.19792 12.6227 4.00024 12.0298 4.00024C11.4368 4.00024 10.8608 4.19792 10.3928 4.56201L5.05878 8.71001C4.73851 8.95955 4.47936 9.27885 4.30105 9.64361C4.12274 10.0084 4.02997 10.409 4.02979 10.815V18.015C4.02979 18.5454 4.2405 19.0542 4.61557 19.4292C4.99064 19.8043 5.49935 20.015 6.02979 20.015H18.0298C18.5602 20.015 19.0689 19.8043 19.444 19.4292C19.8191 19.0542 20.0298 18.5454 20.0298 18.015V10.815C20.0298 9.99201 19.6498 9.21501 18.9998 8.71001Z" stroke="#075AAA" stroke-width="2" stroke-linecap="round" stroke-linejoin="round"/>
<path d="M16 15C13.79 16.333 10.208 16.333 8 15" stroke="#075AAA" stroke-width="2" stroke-linecap="round" stroke-linejoin="round"/>
</svg>
